G04 PROTEUS GERBER X2 FILE*
%TF.GenerationSoftware,Labcenter,Proteus,8.17-SP5-Build39395*%
%TF.CreationDate,2026-07-05T07:50:34+00:00*%
%TF.FileFunction,Legend,Top*%
%TF.FilePolarity,Positive*%
%TF.Part,Single*%
%TF.SameCoordinates,{bbf7ccf1-3c1a-4196-93d1-2c35ff677fed}*%
%FSLAX45Y45*%
%MOMM*%
G01*
%TA.AperFunction,Profile*%
%ADD14C,0.101600*%
%TA.AperFunction,Material*%
%ADD15C,0.101600*%
%ADD16C,0.000010*%
%TD.AperFunction*%
D14*
X-5250000Y-5000000D02*
X+8750000Y-5000000D01*
X+8750000Y+2500000D01*
X-5250000Y+2500000D01*
X-5250000Y-5000000D01*
D15*
X+6373000Y-1889000D02*
X+6881000Y-1889000D01*
X+6881000Y-111000D01*
X+6373000Y-111000D01*
X+6373000Y-1889000D01*
X+6266320Y-1213360D02*
X+6342520Y-1213360D01*
X+6342520Y-1133350D01*
X+6329820Y-1026670D02*
X+6342520Y-1040005D01*
X+6342520Y-1080010D01*
X+6317120Y-1106680D01*
X+6291720Y-1106680D01*
X+6266320Y-1080010D01*
X+6266320Y-1040005D01*
X+6279020Y-1026670D01*
X+6342520Y-1000000D02*
X+6266320Y-1000000D01*
X+6266320Y-946660D01*
X+6291720Y-919990D01*
X+6317120Y-919990D01*
X+6342520Y-946660D01*
X+6342520Y-1000000D01*
X+6291720Y-866650D02*
X+6266320Y-839980D01*
X+6342520Y-839980D01*
X+5694500Y+996000D02*
X+5694500Y+2012000D01*
X+4678500Y+996000D02*
X+4678500Y+2012000D01*
X+5694500Y+2012000D01*
X+4678500Y+996000D02*
X+5694500Y+996000D01*
X+4648020Y+1343980D02*
X+4571820Y+1343980D01*
X+4571820Y+1410655D01*
X+4584520Y+1423990D01*
X+4597220Y+1423990D01*
X+4609920Y+1410655D01*
X+4609920Y+1343980D01*
X+4609920Y+1410655D02*
X+4622620Y+1423990D01*
X+4648020Y+1423990D01*
X+4571820Y+1450660D02*
X+4609920Y+1450660D01*
X+4648020Y+1490665D01*
X+4609920Y+1530670D01*
X+4571820Y+1530670D01*
X+4597220Y+1584010D02*
X+4571820Y+1610680D01*
X+4648020Y+1610680D01*
X-3944500Y+1012000D02*
X-3944500Y-4000D01*
X-2928500Y+1012000D02*
X-2928500Y-4000D01*
X-3944500Y-4000D01*
X-2928500Y+1012000D02*
X-3944500Y+1012000D01*
X-2821820Y+343980D02*
X-2898020Y+343980D01*
X-2898020Y+410655D01*
X-2885320Y+423990D01*
X-2872620Y+423990D01*
X-2859920Y+410655D01*
X-2859920Y+343980D01*
X-2859920Y+410655D02*
X-2847220Y+423990D01*
X-2821820Y+423990D01*
X-2898020Y+450660D02*
X-2859920Y+450660D01*
X-2821820Y+490665D01*
X-2859920Y+530670D01*
X-2898020Y+530670D01*
X-2885320Y+570675D02*
X-2898020Y+584010D01*
X-2898020Y+624015D01*
X-2885320Y+637350D01*
X-2872620Y+637350D01*
X-2859920Y+624015D01*
X-2859920Y+584010D01*
X-2847220Y+570675D01*
X-2821820Y+570675D01*
X-2821820Y+637350D01*
X-4377000Y+1373000D02*
X-4123000Y+1373000D01*
X-4123000Y+1881000D01*
X-4377000Y+1881000D01*
X-4377000Y+1373000D01*
X-4407480Y+1200280D02*
X-4483680Y+1200280D01*
X-4483680Y+1266955D01*
X-4470980Y+1280290D01*
X-4458280Y+1280290D01*
X-4445580Y+1266955D01*
X-4445580Y+1200280D01*
X-4458280Y+1306960D02*
X-4483680Y+1333630D01*
X-4483680Y+1360300D01*
X-4458280Y+1386970D01*
X-4432880Y+1386970D01*
X-4407480Y+1360300D01*
X-4407480Y+1333630D01*
X-4432880Y+1306960D01*
X-4458280Y+1306960D01*
X-4483680Y+1413640D02*
X-4407480Y+1413640D01*
X-4445580Y+1453645D01*
X-4407480Y+1493650D01*
X-4483680Y+1493650D01*
X-4407480Y+1600330D02*
X-4407480Y+1520320D01*
X-4483680Y+1520320D01*
X-4483680Y+1600330D01*
X-4445580Y+1520320D02*
X-4445580Y+1573660D01*
X-4407480Y+1627000D02*
X-4483680Y+1627000D01*
X-4483680Y+1693675D01*
X-4470980Y+1707010D01*
X-4458280Y+1707010D01*
X-4445580Y+1693675D01*
X-4445580Y+1627000D01*
X-4445580Y+1693675D02*
X-4432880Y+1707010D01*
X-4407480Y+1707010D01*
X-4483680Y+1853695D02*
X-4483680Y+1907035D01*
X-4483680Y+1880365D02*
X-4407480Y+1880365D01*
X-4407480Y+1853695D02*
X-4407480Y+1907035D01*
X-4407480Y+1947040D02*
X-4483680Y+1947040D01*
X-4407480Y+2027050D01*
X-4483680Y+2027050D01*
X-4127000Y-1381000D02*
X-3873000Y-1381000D01*
X-3873000Y-873000D01*
X-4127000Y-873000D01*
X-4127000Y-1381000D01*
X-4170180Y-1447040D02*
X-4157480Y-1433705D01*
X-4157480Y-1380365D01*
X-4170180Y-1367030D01*
X-4182880Y-1367030D01*
X-4195580Y-1380365D01*
X-4195580Y-1433705D01*
X-4208280Y-1447040D01*
X-4220980Y-1447040D01*
X-4233680Y-1433705D01*
X-4233680Y-1380365D01*
X-4220980Y-1367030D01*
X-4233680Y-1340360D02*
X-4157480Y-1340360D01*
X-4195580Y-1300355D01*
X-4157480Y-1260350D01*
X-4233680Y-1260350D01*
X-4233680Y-1220345D02*
X-4233680Y-1167005D01*
X-4233680Y-1193675D02*
X-4157480Y-1193675D01*
X-4157480Y-1220345D02*
X-4157480Y-1167005D01*
X-4233680Y-1127000D02*
X-4233680Y-1046990D01*
X-4233680Y-1086995D02*
X-4157480Y-1086995D01*
X-4170180Y-940310D02*
X-4157480Y-953645D01*
X-4157480Y-993650D01*
X-4182880Y-1020320D01*
X-4208280Y-1020320D01*
X-4233680Y-993650D01*
X-4233680Y-953645D01*
X-4220980Y-940310D01*
X-4157480Y-913640D02*
X-4233680Y-913640D01*
X-4233680Y-833630D02*
X-4157480Y-833630D01*
X-4195580Y-913640D02*
X-4195580Y-833630D01*
X+5996000Y-4004000D02*
X+6631000Y-4004000D01*
X+6631000Y-2988000D01*
X+5996000Y-2988000D01*
X+5996000Y-4004000D01*
X+6504000Y-2988000D02*
X+6504000Y-4004000D01*
X+6724980Y-3762700D02*
X+6737680Y-3749365D01*
X+6737680Y-3696025D01*
X+6724980Y-3682690D01*
X+6712280Y-3682690D01*
X+6699580Y-3696025D01*
X+6699580Y-3749365D01*
X+6686880Y-3762700D01*
X+6674180Y-3762700D01*
X+6661480Y-3749365D01*
X+6661480Y-3696025D01*
X+6674180Y-3682690D01*
X+6737680Y-3576010D02*
X+6737680Y-3656020D01*
X+6661480Y-3656020D01*
X+6661480Y-3576010D01*
X+6699580Y-3656020D02*
X+6699580Y-3602680D01*
X+6737680Y-3549340D02*
X+6661480Y-3549340D01*
X+6661480Y-3482665D01*
X+6674180Y-3469330D01*
X+6686880Y-3469330D01*
X+6699580Y-3482665D01*
X+6699580Y-3549340D01*
X+6699580Y-3482665D02*
X+6712280Y-3469330D01*
X+6737680Y-3469330D01*
X+6661480Y-3442660D02*
X+6699580Y-3442660D01*
X+6737680Y-3402655D01*
X+6699580Y-3362650D01*
X+6661480Y-3362650D01*
X+6686880Y-3335980D02*
X+6661480Y-3309310D01*
X+6661480Y-3282640D01*
X+6686880Y-3255970D01*
X+6712280Y-3255970D01*
X+6737680Y-3282640D01*
X+6737680Y-3309310D01*
X+6712280Y-3335980D01*
X+6686880Y-3335980D01*
X-1754000Y-4286000D02*
X-1754000Y+2318000D01*
X+3580000Y-4032000D02*
X+3580000Y+2318000D01*
X-1754000Y-4286000D02*
X-1500000Y-4286000D01*
X-1246000Y-4540000D02*
X-1500000Y-4286000D01*
X-1246000Y-4540000D02*
X+2056000Y-4540000D01*
X+2310000Y-4286000D01*
X+3326000Y-4286000D01*
X+3580000Y-4032000D02*
X+3326000Y-4286000D01*
X-1754000Y+2318000D02*
X+3580000Y+2318000D01*
X-1627000Y-4159000D02*
X-1373000Y-4159000D01*
X-1373000Y-2635000D01*
X-1627000Y-2635000D01*
X-1627000Y-4159000D01*
X-1627000Y-2381000D02*
X-1373000Y-2381000D01*
X-1373000Y-349000D01*
X-1627000Y-349000D01*
X-1627000Y-2381000D01*
X+3199000Y-4159000D02*
X+3453000Y-4159000D01*
X+3453000Y-2127000D01*
X+3199000Y-2127000D01*
X+3199000Y-4159000D01*
X+3199000Y-2000000D02*
X+3453000Y-2000000D01*
X+3453000Y+540000D01*
X+3199000Y+540000D01*
X+3199000Y-2000000D01*
D16*
X-1373000Y+1647440D02*
X-1373000Y+1830320D01*
X-1315850Y+1921760D01*
X-1258700Y+1921760D01*
X-1201550Y+1830320D01*
X-1201550Y+1647440D01*
X-1373000Y+1738880D02*
X-1201550Y+1738880D01*
X-1144400Y+1647440D02*
X-1144400Y+1921760D01*
X-1001525Y+1921760D01*
X-972950Y+1876040D01*
X-972950Y+1830320D01*
X-1001525Y+1784600D01*
X-1144400Y+1784600D01*
X-1001525Y+1784600D02*
X-972950Y+1738880D01*
X-972950Y+1647440D01*
X-915800Y+1647440D02*
X-915800Y+1921760D01*
X-801500Y+1921760D01*
X-744350Y+1830320D01*
X-744350Y+1738880D01*
X-801500Y+1647440D01*
X-915800Y+1647440D01*
X-687200Y+1921760D02*
X-687200Y+1693160D01*
X-658625Y+1647440D01*
X-544325Y+1647440D01*
X-515750Y+1693160D01*
X-515750Y+1921760D01*
X-430025Y+1921760D02*
X-315725Y+1921760D01*
X-372875Y+1921760D02*
X-372875Y+1647440D01*
X-430025Y+1647440D02*
X-315725Y+1647440D01*
X-230000Y+1647440D02*
X-230000Y+1921760D01*
X-58550Y+1647440D01*
X-58550Y+1921760D01*
X-1400Y+1830320D02*
X+55750Y+1921760D01*
X+112900Y+1921760D01*
X+170050Y+1830320D01*
X+170050Y+1738880D01*
X+112900Y+1647440D01*
X+55750Y+1647440D01*
X-1400Y+1738880D01*
X-1400Y+1830320D01*
X+455800Y+1921760D02*
X+455800Y+1693160D01*
X+484375Y+1647440D01*
X+598675Y+1647440D01*
X+627250Y+1693160D01*
X+627250Y+1921760D01*
X+684400Y+1647440D02*
X+684400Y+1921760D01*
X+855850Y+1647440D01*
X+855850Y+1921760D01*
X+913000Y+1830320D02*
X+970150Y+1921760D01*
X+1027300Y+1921760D01*
X+1084450Y+1830320D01*
X+1084450Y+1738880D01*
X+1027300Y+1647440D01*
X+970150Y+1647440D01*
X+913000Y+1738880D01*
X+913000Y+1830320D01*
X+1370200Y+1647440D02*
X+1370200Y+1921760D01*
X+1513075Y+1921760D01*
X+1541650Y+1876040D01*
X+1541650Y+1830320D01*
X+1513075Y+1784600D01*
X+1370200Y+1784600D01*
X+1513075Y+1784600D02*
X+1541650Y+1738880D01*
X+1541650Y+1647440D01*
X+1627375Y+1876040D02*
X+1655950Y+1921760D01*
X+1741675Y+1921760D01*
X+1770250Y+1876040D01*
X+1770250Y+1830320D01*
X+1741675Y+1784600D01*
X+1770250Y+1738880D01*
X+1770250Y+1693160D01*
X+1741675Y+1647440D01*
X+1655950Y+1647440D01*
X+1627375Y+1693160D01*
X+1684525Y+1784600D02*
X+1741675Y+1784600D01*
X+2056000Y+1693160D02*
X+2084575Y+1647440D01*
X+2198875Y+1647440D01*
X+2227450Y+1693160D01*
X+2227450Y+1738880D01*
X+2198875Y+1784600D01*
X+2084575Y+1784600D01*
X+2056000Y+1830320D01*
X+2056000Y+1876040D01*
X+2084575Y+1921760D01*
X+2198875Y+1921760D01*
X+2227450Y+1876040D01*
X+2284600Y+1647440D02*
X+2284600Y+1921760D01*
X+2456050Y+1921760D02*
X+2456050Y+1647440D01*
X+2284600Y+1784600D02*
X+2456050Y+1784600D01*
X+2541775Y+1921760D02*
X+2656075Y+1921760D01*
X+2598925Y+1921760D02*
X+2598925Y+1647440D01*
X+2541775Y+1647440D02*
X+2656075Y+1647440D01*
X+2913250Y+1647440D02*
X+2741800Y+1647440D01*
X+2741800Y+1921760D01*
X+2913250Y+1921760D01*
X+2741800Y+1784600D02*
X+2856100Y+1784600D01*
X+2970400Y+1921760D02*
X+2970400Y+1647440D01*
X+3141850Y+1647440D01*
X+3199000Y+1647440D02*
X+3199000Y+1921760D01*
X+3313300Y+1921760D01*
X+3370450Y+1830320D01*
X+3370450Y+1738880D01*
X+3313300Y+1647440D01*
X+3199000Y+1647440D01*
M02*
