G04 PROTEUS GERBER X2 FILE*
%TF.GenerationSoftware,Labcenter,Proteus,8.17-SP5-Build39395*%
%TF.CreationDate,2026-07-05T07:50:34+00:00*%
%TF.FileFunction,Plated,1,2,PTH*%
%TF.FilePolarity,Positive*%
%TF.Part,Single*%
%TF.SameCoordinates,{bbf7ccf1-3c1a-4196-93d1-2c35ff677fed}*%
%FSLAX45Y45*%
%MOMM*%
G01*
%TA.AperFunction,ComponentDrill*%
%ADD25C,1.016000*%
%TA.AperFunction,ComponentDrill*%
%ADD26C,0.762000*%
%TD.AperFunction*%
D25*
X+6754000Y-1762000D03*
X+6754000Y-1508000D03*
X+6754000Y-1254000D03*
X+6754000Y-1000000D03*
X+6754000Y-746000D03*
X+6754000Y-492000D03*
X+6754000Y-238000D03*
X+6500000Y-238000D03*
X+6500000Y-492000D03*
X+6500000Y-746000D03*
X+6500000Y-1000000D03*
X+6500000Y-1254000D03*
X+6500000Y-1508000D03*
X+6500000Y-1762000D03*
D26*
X+5250000Y+1250000D03*
X+5250000Y+1758000D03*
X+5504000Y+1504000D03*
X-3500000Y+758000D03*
X-3500000Y+250000D03*
X-3754000Y+504000D03*
D25*
X-4250000Y+1500000D03*
X-4250000Y+1754000D03*
X-4000000Y-1254000D03*
X-4000000Y-1000000D03*
X+6250000Y-3242000D03*
X+6250000Y-3496000D03*
X+6250000Y-3750000D03*
D26*
X+3326000Y-4032000D03*
X+3326000Y-3778000D03*
X+3326000Y-3524000D03*
X+3326000Y-3270000D03*
X-1500000Y-1238000D03*
X+3326000Y-3016000D03*
X+3326000Y-2762000D03*
X-1500000Y-1492000D03*
X+3326000Y-2508000D03*
X+3326000Y-2254000D03*
X+3326000Y-1873000D03*
X+3326000Y-1619000D03*
X+3326000Y-1365000D03*
X+3326000Y-1111000D03*
X+3326000Y-857000D03*
X+3326000Y-603000D03*
X-1500000Y-476000D03*
X-1500000Y-2762000D03*
X-1500000Y-3016000D03*
X-1500000Y-3270000D03*
X-1500000Y-3524000D03*
X-1500000Y-3778000D03*
X-1500000Y-4032000D03*
X+3326000Y-95000D03*
X-1500000Y-1746000D03*
X-1500000Y-2000000D03*
X+3326000Y-349000D03*
X-1500000Y-730000D03*
X-1500000Y-984000D03*
X+3326000Y+413000D03*
X+3326000Y+159000D03*
X-1500000Y-2254000D03*
M02*
